# xmcd
# 
# Track frame offsets:
#     150
#     13207
#     23012
#     33545
#     45013
#     59457
#     69427
#     80468
#     92095
#     102195
#     115009
#     124478
#     136036
#     148649
#     161290
#     173263
#     182278
#     192646
#     202747
#     214723
#     226559
# 
# Disc length: 3187
# 
# Revision: 3
# Processed by: cddbd v1.5.2PL0 Copyright (c) Steve Scherf et al.
# Submitted via: fre:ac v1.0.17
# 
DISCID=030c7115
DTITLE=Jim Reeves - The Definitive Collection CD1
DYEAR=2003
DGENRE=Country
TTITLE0=Distant Drums
TTITLE1=It Hurts So Much To See You Go
TTITLE2=He'll Have To Go
TTITLE3=Adios Amigo
TTITLE4=Guilty
TTITLE5=Blue Boy
TTITLE6=Thats When I See The Blues
TTITLE7=I Missed Me
TTITLE8=I Heard A Heart Break Last Night
TTITLE9=Four Walls
TTITLE10=Billy Bayou
TTITLE11=Yonder Comes A Sucker
TTITLE12=Not Until The Next Time
TTITLE13=This World Is Not My Home
TTITLE14=Am I Losing You
TTITLE15=Home
TTITLE16=Losing Your Love
TTITLE17=Partners
TTITLE18=Mexican Joe
TTITLE19=According To My Heart
TTITLE20=Nobodys Fool
EXTD=
EXTT0=
EXTT1=
EXTT2=
EXTT3=
EXTT4=
EXTT5=
EXTT6=
EXTT7=
EXTT8=
EXTT9=
EXTT10=
EXTT11=
EXTT12=
EXTT13=
EXTT14=
EXTT15=
EXTT16=
EXTT17=
EXTT18=
EXTT19=
EXTT20=
PLAYORDER=
